<svg xmlns="http://www.w3.org/2000/svg" 
     xmlns:xlink="http://www.w3.org/1999/xlink" 
     
     version="1.1" 
     id="svg1" 
     
     x="0px" y="0px" 
     
     style="enable-background:new 0 0 175 155;" 
     xml:space="preserve" 
     viewBox="40.5 57 94.2 42">
<g>
    <path style="opacity:0.36;fill:#4D555B;enable-background:new" d="M87.7,57c-11.5,0-20.5,9.3-20.5,20.5C67.2,89,76.4,98,87.7,98c11.5,0,20.5-9.3,20.5-20.5S99,57,87.7,57z"/>
    <path style="opacity:0.13;fill-rule:evenodd;clip-rule:evenodd;fill:#4D555B;enable-background:new" d="M41.4,77.5c0-11.3,9.3-20.5,20.5-20.5c4.9,0,9.4,1.7,12.9,4.5c-4.7,3.8-7.7,9.6-7.7,16c0,6.5,3,12.3,7.7,16     c-3.5,2.8-8,4.5-12.9,4.5C50.7,98,41.4,89,41.4,77.5z"/>
    <path style="fill:#AF2A42" d="M113.3,57c-11.5,0-20.7,9.3-20.7,20.5c0,11.5,9.3,20.5,20.5,20.5c11.5,0,20.5-9.3,20.5-20.5     C133.8,66.2,124.5,57,113.3,57z"/>
</g>
</svg>